HIERARCHY
ROOT hip
{
  OFFSET 0 0 0
  CHANNELS 6 Xposition Yposition Zposition Zrotation Yrotation Xrotation
  JOINT abdomen
  {
    OFFSET 0 20.6881 -0.73152
    CHANNELS 3 Zrotation Xrotation Yrotation
    JOINT chest
    {
      OFFSET 0 11.7043 -0.48768
      CHANNELS 3 Zrotation Xrotation Yrotation
      JOINT neck
      {
        OFFSET 0 22.1894 -2.19456
        CHANNELS 3 Zrotation Xrotation Yrotation
        JOINT head
        {
          OFFSET -0.24384 7.07133 1.2192
          CHANNELS 3 Zrotation Xrotation Yrotation
          JOINT leftEye
          {
            OFFSET 4.14528 8.04674 8.04672
            CHANNELS 3 Zrotation Xrotation Yrotation
            End Site
            {
              OFFSET 1 0 0
            }
          }
          JOINT rightEye
          {
            OFFSET -3.6576 8.04674 8.04672
            CHANNELS 3 Zrotation Xrotation Yrotation
            End Site
            {
              OFFSET 1 0 0
            }
          }
        }
      }
      JOINT rCollar
      {
        OFFSET -2.68224 19.2634 -4.8768
        CHANNELS 3 Zrotation Xrotation Yrotation
        JOINT rShldr
        {
          OFFSET -8.77824 -1.95073 1.46304
          CHANNELS 3 Zrotation Xrotation Yrotation
          JOINT rForeArm
          {
            OFFSET -28.1742 -1.7115 0.48768
            CHANNELS 3 Zrotation Xrotation Yrotation
            JOINT rHand
            {
              OFFSET -22.5879 0.773209 7.07136
              CHANNELS 3 Zrotation Xrotation Yrotation
              JOINT rThumb1
              {
                OFFSET -1.2192 -0.487915 3.41376
                CHANNELS 3 Zrotation Xrotation Yrotation
                JOINT rThumb2
                {
                  OFFSET -3.37035 -0.52449 3.41376
                  CHANNELS 3 Zrotation Xrotation Yrotation
                  End Site
                  {
                    OFFSET -1.78271 -1.18214 1.43049
                  }
                }
              }
              JOINT rIndex1
              {
                OFFSET -7.75947 0.938293 5.60832
                CHANNELS 3 Zrotation Xrotation Yrotation
                JOINT rIndex2
                {
                  OFFSET -2.54057 -0.884171 1.56538
                  CHANNELS 3 Zrotation Xrotation Yrotation
                  End Site
                  {
                    OFFSET -1.62519 -0.234802 1.16502
                  }
                }
              }
              JOINT rMid1
              {
                OFFSET -8.24714 1.18213 3.41376
                CHANNELS 3 Zrotation Xrotation Yrotation
                JOINT rMid2
                {
                  OFFSET -3.10165 -0.590103 1.0647
                  CHANNELS 3 Zrotation Xrotation Yrotation
                  End Site
                  {
                    OFFSET -2.48547 -0.328903 0.83742
                  }
                }
              }
              JOINT rRing1
              {
                OFFSET -8.82822 0.546677 1.51678
                CHANNELS 3 Zrotation Xrotation Yrotation
                JOINT rRing2
                {
                  OFFSET -2.60934 -0.819778 -0.0198488
                  CHANNELS 3 Zrotation Xrotation Yrotation
                  End Site
                  {
                    OFFSET -2.33842 -0.294052 0.168128
                  }
                }
              }
              JOINT rPinky1
              {
                OFFSET -8.27202 -0.0477905 -0.4584
                CHANNELS 3 Zrotation Xrotation Yrotation
                JOINT rPinky2
                {
                  OFFSET -1.82734 -0.647385 -0.700984
                  CHANNELS 3 Zrotation Xrotation Yrotation
                  End Site
                  {
                    OFFSET -1.69225 -0.51767 -0.607171
                  }
                }
              }
            }
          }
        }
      }
      JOINT lCollar
      {
        OFFSET 2.68224 19.2634 -4.8768
        CHANNELS 3 Zrotation Xrotation Yrotation
        JOINT lShldr
        {
          OFFSET 8.77824 -1.95073 1.46304
          CHANNELS 3 Zrotation Xrotation Yrotation
          JOINT lForeArm
          {
            OFFSET 28.1742 -1.7115 0.48768
            CHANNELS 3 Zrotation Xrotation Yrotation
            JOINT lHand
            {
              OFFSET 22.5879 0.773209 7.07136
              CHANNELS 3 Zrotation Xrotation Yrotation
              JOINT lThumb1
              {
                OFFSET 1.2192 -0.487915 3.41376
                CHANNELS 3 Zrotation Xrotation Yrotation
                JOINT lThumb2
                {
                  OFFSET 3.37035 -0.52449 3.41376
                  CHANNELS 3 Zrotation Xrotation Yrotation
                  End Site
                  {
                    OFFSET 1.78271 -1.18214 1.43049
                  }
                }
              }
              JOINT lIndex1
              {
                OFFSET 7.75947 0.938293 5.60832
                CHANNELS 3 Zrotation Xrotation Yrotation
                JOINT lIndex2
                {
                  OFFSET 2.54057 -0.884171 1.56538
                  CHANNELS 3 Zrotation Xrotation Yrotation
                  End Site
                  {
                    OFFSET 1.62519 -0.234802 1.16502
                  }
                }
              }
              JOINT lMid1
              {
                OFFSET 8.24714 1.18213 3.41376
                CHANNELS 3 Zrotation Xrotation Yrotation
                JOINT lMid2
                {
                  OFFSET 3.10165 -0.590103 1.0647
                  CHANNELS 3 Zrotation Xrotation Yrotation
                  End Site
                  {
                    OFFSET 2.48547 -0.328903 0.83742
                  }
                }
              }
              JOINT lRing1
              {
                OFFSET 8.82822 0.546677 1.51678
                CHANNELS 3 Zrotation Xrotation Yrotation
                JOINT lRing2
                {
                  OFFSET 2.60934 -0.819778 -0.0198488
                  CHANNELS 3 Zrotation Xrotation Yrotation
                  End Site
                  {
                    OFFSET 2.33842 -0.294052 0.168128
                  }
                }
              }
              JOINT lPinky1
              {
                OFFSET 8.27202 -0.0477905 -0.4584
                CHANNELS 3 Zrotation Xrotation Yrotation
                JOINT lPinky2
                {
                  OFFSET 1.82734 -0.647385 -0.700984
                  CHANNELS 3 Zrotation Xrotation Yrotation
                  End Site
                  {
                    OFFSET 1.69225 -0.51767 -0.607171
                  }
                }
              }
            }
          }
        }
      }
    }
  }
  JOINT rButtock
  {
    OFFSET -8.77824 4.35084 1.2192
    CHANNELS 3 Zrotation Xrotation Yrotation
    JOINT rThigh
    {
      OFFSET 0 -1.70687 -2.19456
      CHANNELS 3 Zrotation Xrotation Yrotation
      JOINT rShin
      {
        OFFSET 0 -36.8199 0.73152
        CHANNELS 3 Zrotation Xrotation Yrotation
        JOINT rFoot
        {
          OFFSET 0.73152 -45.1104 -5.12064
          CHANNELS 3 Zrotation Xrotation Yrotation
          End Site
          {
            OFFSET -1.1221 -3.69964 12.103
          }
        }
      }
    }
  }
  JOINT lButtock
  {
    OFFSET 8.77824 4.35084 1.2192
    CHANNELS 3 Zrotation Xrotation Yrotation
    JOINT lThigh
    {
      OFFSET 0 -1.70687 -2.19456
      CHANNELS 3 Zrotation Xrotation Yrotation
      JOINT lShin
      {
        OFFSET 0 -36.8199 0.73152
        CHANNELS 3 Zrotation Xrotation Yrotation
        JOINT lFoot
        {
          OFFSET -0.73152 -45.1104 -5.12064
          CHANNELS 3 Zrotation Xrotation Yrotation
          End Site
          {
            OFFSET 1.1221 -3.69964 12.103
          }
        }
      }
    }
  }
}
MOTION
Frames:	4
Frame Time:	0.00833333
9.20959 86.2078 15.4085 -3.9672 -4.0583 4.1985 6.65535 3.01665 4.39204 -1.14727 0.802737 1.30312 -2.08928 1.30976 -1.62596 -0.684792 -13.8889 -2.78091 -0.0 0.0 0.0 -0.0 0.0 0.0 -4.37943e-16 7.16554e-14 3.74942e-14 58.6869 30.3708 28.9196 -22.4051 -16.3775 44.9007 -0.0716108 -7.60441 -1.07513 -4.68149e-10 1.18738e-09 5.69208e-10 -8.14098e-10 2.07896e-09 9.8362e-10 -4.68151e-10 1.18739e-09 5.69198e-10 7.73091 5.47488 0.417314 -4.68147e-10 1.18738e-09 5.69204e-10 2.90554 0.965183 0.102902 -4.68142e-10 1.18739e-09 5.69206e-10 10.2786 0.731801 0.0259123 -4.68155e-10 1.18739e-09 5.69214e-10 2.22167 -0.733487 -0.20892 -4.4031e-16 7.16561e-14 3.73447e-14 -54.6658 53.1775 6.39312 28.2673 -32.5648 -71.3651 0.0317473 -5.07521 0.715159 3.32336e-10 -3.38747e-09 -8.6035e-10 5.79211e-10 -5.84139e-09 -1.48566e-09 3.3233e-10 -3.38749e-09 -8.60351e-10 -7.73091 5.47488 -0.417314 3.32337e-10 -3.38747e-09 -8.60348e-10 -2.90554 0.965183 -0.102902 3.32331e-10 -3.38747e-09 -8.60352e-10 -10.2786 0.731801 -0.0259123 3.32339e-10 -3.38747e-09 -8.60363e-10 -2.22167 -0.733487 0.20892 -2.03217e-16 0.0 -3.88251e-19 9.22229 10.9846 4.71666 0.0149184 10.8598 0.418687 -0.346783 -2.67748 2.9097 2.03217e-16 0.0 3.88251e-19 5.48323 -32.8727 -7.13761 0.0777076 17.5436 -0.324886 1.64174 -4.43647 7.12505
9.14624 85.9869 16.5647 -4.2933 -4.363 4.1207 6.57149 2.91012 4.47836 -1.10028 0.858344 1.32514 -2.17546 1.26716 -1.67461 -0.54044 -13.8937 -2.83702 -0.0 0.0 0.0 -0.0 0.0 0.0 3.61742e-14 8.58742e-14 3.84151e-14 58.8776 30.6551 28.3248 -22.4382 -16.4297 44.9909 -0.0706359 -7.56115 -1.06892 -7.33932e-10 2.60476e-09 5.57637e-10 -1.27312e-09 4.53039e-09 9.62164e-10 -7.33933e-10 2.60477e-09 5.57631e-10 7.73091 5.47488 0.417314 -7.33929e-10 2.60476e-09 5.57634e-10 2.90554 0.965183 0.102902 -7.33924e-10 2.60477e-09 5.57636e-10 10.2786 0.731801 0.0259123 -7.33938e-10 2.60477e-09 5.57643e-10 2.22167 -0.733487 -0.20892 3.61858e-14 8.58761e-14 3.83157e-14 -55.1282 53.0721 6.88525 28.2721 -32.6107 -71.4395 0.0259897 -4.59712 0.647487 3.34321e-10 -3.74431e-09 -9.60499e-10 5.83195e-10 -6.45707e-09 -1.65886e-09 3.34314e-10 -3.74433e-09 -9.60499e-10 -7.73091 5.47488 -0.417314 3.34322e-10 -3.74431e-09 -9.60496e-10 -2.90554 0.965183 -0.102902 3.34315e-10 -3.74431e-09 -9.605e-10 -10.2786 0.731801 -0.0259123 3.34324e-10 -3.74431e-09 -9.60512e-10 -2.22167 -0.733487 0.20892 -2.03217e-16 0.0 -3.88251e-19 9.15514 11.0215 4.86674 0.0130074 12.0156 0.439651 -0.331928 -2.39021 3.27193 2.03217e-16 0.0 3.88251e-19 5.32734 -32.8168 -6.83084 0.0871812 18.5363 -0.320413 1.45209 -3.44934 6.61117
9.21258 85.8424 17.6923 -4.1251 -4.4554 4.2199 6.23609 2.77912 4.50268 -1.00224 0.828273 1.32781 -2.25356 1.25112 -1.69044 -0.417642 -13.8161 -2.8328 -0.0 0.0 0.0 -0.0 0.0 0.0 1.17371e-14 7.26427e-14 3.46654e-14 59.1785 31.038 27.5904 -22.4723 -16.4828 45.0878 -0.0672688 -7.38297 -1.04344 -5.26271e-10 1.96028e-09 4.03948e-10 -9.13282e-10 3.41005e-09 6.97026e-10 -5.2627e-10 1.96029e-09 4.03944e-10 7.73091 5.47488 0.417314 -5.26267e-10 1.96028e-09 4.03945e-10 2.90554 0.965183 0.102902 -5.26262e-10 1.96029e-09 4.03948e-10 10.2786 0.731801 0.0259123 -5.26276e-10 1.96028e-09 4.03955e-10 2.22167 -0.733487 -0.20892 1.16993e-14 7.26442e-14 3.45443e-14 -55.6778 52.9762 7.50927 28.2777 -32.6656 -71.5286 0.0199097 -4.07465 0.573603 4.12105e-10 -3.30069e-09 -8.94458e-10 7.17023e-10 -5.692e-09 -1.54487e-09 4.12099e-10 -3.30071e-09 -8.94457e-10 -7.73091 5.47488 -0.417314 4.12106e-10 -3.30069e-09 -8.94455e-10 -2.90554 0.965183 -0.102902 4.12099e-10 -3.30069e-09 -8.94459e-10 -10.2786 0.731801 -0.0259123 4.12109e-10 -3.30069e-09 -8.94471e-10 -2.22167 -0.733487 0.20892 -2.03217e-16 0.0 -3.88251e-19 8.84999 11.1602 5.00145 0.0147547 13.0382 0.464387 -0.327665 -2.10525 3.63533 2.03217e-16 0.0 3.88251e-19 4.77206 -32.9314 -7.32483 0.0955898 19.5196 -0.324114 1.33668 -2.32122 6.64489
9.50555 85.8556 18.9747 -3.2643 -4.5482 4.1358 5.74018 2.61906 4.49261 -0.868003 0.744343 1.31932 -2.3312 1.24833 -1.68647 -0.306399 -13.6733 -2.79066 -0.0 0.0 0.0 -0.0 0.0 0.0 -4.94941e-14 4.33347e-14 2.8302e-14 59.5754 31.4804 26.7392 -22.4993 -16.5248 45.1652 -0.0622349 -7.09579 -1.00243 -2.33914e-11 5.229e-11 1.56134e-10 -4.27596e-11 1.00495e-10 2.70398e-10 -2.33873e-11 5.22964e-11 1.56133e-10 7.73091 5.47488 0.417314 -2.33885e-11 5.22877e-11 1.56131e-10 2.90554 0.965183 0.102902 -2.33819e-11 5.22942e-11 1.56135e-10 10.2786 0.731801 0.0259123 -2.33964e-11 5.22963e-11 1.56142e-10 2.22167 -0.733487 -0.20892 -4.9622e-14 4.33348e-14 2.81156e-14 -56.3011 52.8746 8.23143 28.2837 -32.7256 -71.6264 0.0140869 -3.48185 0.489905 5.41165e-10 -2.37481e-09 -7.301e-10 9.38743e-10 -4.09501e-09 -1.26098e-09 5.4116e-10 -2.37482e-09 -7.30097e-10 -7.73091 5.47488 -0.417314 5.41166e-10 -2.37481e-09 -7.301e-10 -2.90554 0.965183 -0.102902 5.4116e-10 -2.37481e-09 -7.301e-10 -10.2786 0.731801 -0.0259123 5.4117e-10 -2.37481e-09 -7.30113e-10 -2.22167 -0.733487 0.20892 -2.03217e-16 0.0 -3.88251e-19 8.39628 11.3156 5.13202 0.0183244 14.048 0.49275 -0.331485 -1.81256 4.00612 2.03217e-16 0.0 3.88251e-19 3.95081 -33.1649 -8.37459 0.104142 20.5537 -0.333233 1.24578 -1.07274 7.04769
